PathFileType	4	(X/Y/Z)	C:/Users/beibeiliu/ov580/test_trc\sequence.29_training_dense_left.trc
DataRate	CameraRate	NumFrames	NumMarkers	Units	OrigDataRate	OrigDataStartFrame	OrigNumFrames
120	120	17	19	mm	120	1	396
Frame#	Time	ThumbCMC			ThumbMCP			ThumbIP			ThumbTip			IndexMCP			IndexPIP			IndexTip			MiddleMCP			MiddlePIP			MiddleTip			RingMCP			RingPIP			RingTip			PinkyMCP			PinkyPIP			PinkyTip			BackHand1			BackHand2			BackHand3	
		X0	Y0	Z0	X1	Y1	Z1	X2	Y2	Z2	X3	Y3	Z3	X4	Y4	Z4	X5	Y5	Z5	X6	Y6	Z6	X7	Y7	Z7	X8	Y8	Z8	X9	Y9	Z9	X10	Y10	Z10	X11	Y11	Z11	X12	Y12	Z12	X13	Y13	Z13	X14	Y14	Z14	X15	Y15	Z15	X16	Y16	Z16	X17	Y17	Z17	X18	Y18	Z18	
0	0	-217.603	10.9595	22.9618	-226.698	15.6387	-1.55354	-233.246	14.4681	-25.5485	-233.417	13.8317	-49.3721	-200.593	-7.52188	-43.5705	-198.521	-3.33207	-66.3544	-192.681	4.19168	-93.9055	-180.839	-13.7405	-47.4592	-173.282	-11.261	-71.3091	-162.588	-3.50997	-95.006	-163.526	-17.0713	-39.9874	-156.623	-16.1171	-57.9439	-148.069	-11.0286	-78.4773	-142.735	-17.7549	-21.6734	-135.697	-17.1446	-35.5633	-128.898	-17.2525	-56.6223	-175.367	-23.0126	4.44404	-179.713	-21.1143	35.1682	-201.524	-15.95	14.3592	
1	0.00833333	-216.775	9.53893	21.5266	-228.703	13.5367	-1.93112	-229.282	11.8319	-24.0359	-233.383	12.7883	-48.153	-200.771	-8.19081	-44.5034	-196.856	-4.33838	-69.4756	-191.183	3.59101	-93.3769	-181.854	-13.6463	-49.7271	-175.829	-11.4566	-68.6574	-163.459	-3.73286	-94.4945	-161.007	-18.7388	-36.7284	-158.323	-15.13	-58.3196	-148.31	-9.24502	-83.2066	-147.504	-16.7096	-18.5825	-134.33	-17.8537	-39.679	-127.933	-19.3934	-54.2095	-174.125	-22.6203	8.58639	-181.548	-22.7658	32.6517	-202.747	-15.773	12.8129	
2	0.0166667	-217.915	9.93651	23.9751	-228.528	13.8691	1.54535	-233.346	11.4024	-26.964	-234.092	12.8755	-42.7422	-206.154	-6.29581	-48.2159	-198.699	-4.3376	-66.2912	-197.828	2.83369	-89.6119	-182.422	-14.9417	-45.6232	-177.16	-10.6984	-69.0319	-169.218	-3.52006	-93.0919	-168.103	-17.564	-35.6335	-158.539	-14.2334	-62.0542	-149.545	-8.57159	-81.4176	-147.826	-19.078	-18.9391	-137.017	-18.3092	-37.233	-131.119	-17.3696	-54.622	-175.486	-24.4826	8.53758	-183.17	-22.1256	32.5653	-203.094	-16.4402	16.3262	
3	0.025	-222.588	8.11812	19.9815	-229.082	12.0072	-0.615502	-233.831	11.14	-24.1018	-237.43	13.3318	-41.2193	-205.059	-7.71726	-46.3416	-203.286	-4.05074	-69.7545	-194.456	-0.0491957	-86.7325	-186.326	-14.4233	-44.1215	-177.802	-10.7007	-70.3053	-167.93	-4.13075	-92.4627	-169.356	-17.9203	-37.7033	-159.694	-14.7596	-59.9778	-154.848	-9.51708	-76.8818	-153.891	-17.723	-18.422	-143.15	-19.6315	-37.8366	-132.917	-20.4064	-54.1105	-178.033	-23.6898	5.98007	-181.318	-24.4543	32.621	-206.003	-17.3227	13.7688	
4	0.0333333	-219.773	7.89112	24.2805	-231.562	10.6198	-1.88049	-238.29	11.3822	-22.8208	-241.32	12.1677	-43.0704	-210.055	-8.32914	-43.2148	-204.81	-6.2033	-64.1083	-201.041	-0.653867	-87.2353	-188.865	-15.3204	-49.6537	-181.124	-9.61937	-72.2874	-172.474	-5.14368	-91.3178	-166.377	-19.0032	-35.3002	-162.364	-15.3203	-61.2242	-153.382	-8.59596	-79.902	-149.621	-19.877	-18.4614	-146.51	-19.578	-36.6428	-134.954	-21.0626	-54.2807	-179.299	-26.2954	7.44712	-188.138	-24.2313	31.084	-206.295	-17.5543	14.2678	
5	0.0416667	-221.984	5.42768	20.804	-232.737	9.14663	-0.44061	-237.26	7.35571	-25.1322	-243.337	10.2854	-43.6467	-212.68	-8.80418	-41.9376	-202.797	-6.99438	-67.1003	-202.197	-1.23879	-86.7156	-186.665	-16.3944	-47.3813	-183.135	-11.9274	-69.4062	-171.012	-5.80961	-91.2505	-167.797	-20.2326	-34.9625	-161.546	-16.8404	-60.0211	-155.179	-11.0945	-76.7823	-153.812	-20.8156	-18.7398	-148.711	-19.9773	-34.588	-136.764	-19.5124	-52.9674	-184.208	-25.1948	10.7306	-187.326	-24.6513	33.7305	-211.081	-17.2055	15.5053	
6	0.05	-226.788	4.86435	21.1145	-237.121	8.62536	-1.64523	-238.522	9.20279	-21.3013	-243.448	8.58523	-41.6272	-209.906	-11.0629	-45.766	-209.227	-6.86712	-63.638	-202.288	-2.55258	-86.2863	-187.709	-17.0532	-47.4969	-186.056	-12.6101	-66.9893	-175.099	-5.90795	-93.5628	-174.631	-19.2185	-33.6151	-165.454	-17.0071	-57.1411	-160.157	-10.7477	-81.1808	-153.213	-20.3672	-17.9869	-145.926	-19.6984	-38.5305	-138.219	-19.7673	-54.2983	-186.178	-23.1381	10.9778	-187.763	-25.2694	35.8792	-210.49	-20.4855	17.6979	
7	0.0583333	-228.752	5.64531	25.6263	-238.532	9.60702	1.21001	-244.376	6.69146	-24.8165	-249.184	8.76349	-42.1571	-213.344	-11.7835	-44.8159	-210.619	-6.5838	-68.4827	-203.657	-3.38066	-86.5485	-191.241	-16.6047	-47.6554	-186.544	-12.5314	-67.7902	-179.409	-3.11751	-96.4024	-176.093	-19.2799	-35.1504	-164.487	-16.8304	-57.2486	-159.983	-11.0038	-77.1383	-154.521	-21.0057	-20.4601	-149.792	-19.3264	-35.7458	-139.325	-18.1468	-57.3885	-182.58	-24.9772	11.6091	-188.863	-25.2104	33.7895	-214.838	-20.7872	16.3815	
8	0.0666667	-229.129	5.13381	22.6201	-238.629	8.22176	-1.17751	-242.055	6.83856	-22.4099	-247.961	6.68299	-44.9881	-215.563	-11.6565	-42.7658	-211.087	-7.48401	-69.1301	-208.931	-0.30953	-91.8938	-194.402	-17.2681	-44.842	-185.05	-12.6673	-71.1489	-179.447	-4.16251	-93.9055	-175.332	-20.0202	-36.8256	-166.838	-16.9892	-57.465	-163.999	-9.29763	-80.6692	-157.325	-20.2042	-16.6238	-151.955	-19.813	-35.279	-141.187	-19.5603	-55.7216	-186.179	-24.1491	9.01221	-189.57	-24.5643	36.3094	-213.699	-19.1149	17.0987	
9	0.075	-227.914	4.96819	24.6018	-243.48	9.14951	-0.752557	-248.165	8.2337	-21.1478	-247.296	8.57583	-40.9402	-217.345	-10.6928	-44.2385	-211.163	-8.57359	-64.0206	-207.785	-3.08527	-88.5773	-196.629	-16.8837	-47.6264	-191.187	-12.5325	-70.1202	-182.151	-4.48478	-92.8133	-179.523	-19.7534	-38.9469	-167.93	-17.9293	-56.1557	-164.21	-9.73489	-78.8051	-162.846	-19.3044	-18.0659	-151.108	-19.668	-37.8842	-144.639	-18.9153	-55.7848	-184.839	-25.7382	9.80897	-190.7	-26.1539	32.0869	-215.771	-19.2959	17.678	
10	0.0833333	-230.916	3.45637	22.8596	-242.456	7.8464	0.534638	-246.786	6.94688	-22.6951	-250.992	7.38131	-43.4897	-215.344	-11.1257	-44.7808	-214.049	-7.40717	-65.4716	-207.267	-2.72076	-90.3318	-195.738	-16.9944	-49.0462	-191.248	-12.1781	-68.757	-179.578	-5.53566	-91.9682	-174.363	-20.1041	-35.6763	-169.219	-17.4524	-56.7588	-165.515	-10.0618	-80.6554	-163.143	-19.1602	-18.721	-152.804	-20.1315	-37.7929	-145.611	-18.9329	-55.2461	-185.689	-25.8733	10.0052	-191.493	-25.2767	30.873	-214.604	-21.276	16.7565	
11	0.0916667	-227.688	4.36257	25.3495	-245.337	8.48599	1.62971	-249.17	6.68493	-21.5197	-248.386	6.5041	-40.9764	-216.993	-11.6081	-45.2662	-213.654	-8.06476	-67.6081	-208.443	-4.46999	-86.614	-196.429	-17.3926	-45.8836	-188.919	-13.4436	-70.182	-180.655	-5.09014	-95.6431	-176.378	-20.012	-33.8681	-172.622	-16.7558	-56.6647	-164.56	-11.6566	-76.879	-162.777	-20.6064	-23.5717	-155.383	-19.581	-36.1228	-142.856	-20.0606	-55.7443	-186.348	-27.7873	8.35386	-189.991	-27.1267	33.4402	-216.797	-19.1284	14.7383	
12	0.1	-227.878	1.07796	21.7335	-239.628	6.74443	0.728735	-249.137	6.7623	-22.1387	-252.014	6.29373	-42.0244	-217.828	-12.1075	-46.5049	-216.162	-8.35623	-67.1402	-210.593	-4.56646	-86.1172	-197.84	-17.1691	-48.1489	-189.183	-12.9835	-71.6189	-180.927	-7.1901	-92.26	-174.881	-21.2974	-35.1768	-173.242	-16.7529	-60.1963	-165.444	-10.7803	-78.8179	-160.502	-19.9137	-18.2028	-153.871	-19.8157	-34.9604	-144.616	-20.8581	-57.4095	-189.59	-24.8669	6.17097	-192.515	-25.544	35.153	-214.868	-19.7345	17.2463	
13	0.108333	-229.933	3.50387	24.6994	-244.515	6.28929	-0.757741	-249.157	4.62609	-23.8772	-250.951	6.03464	-44.0072	-215.015	-13.2375	-42.5968	-214.497	-9.90982	-64.2225	-209.653	-3.5085	-90.0309	-196.136	-18.4571	-49.623	-191.138	-12.8107	-71.6825	-183.496	-6.17841	-92.374	-177.43	-21.0492	-37.9039	-172.245	-17.5397	-56.4289	-167.098	-10.9866	-77.7061	-162.505	-21.022	-23.4877	-151.469	-19.4566	-40.0946	-146.338	-19.9997	-57.5925	-188.697	-25.0384	6.23143	-193.028	-27.6599	32.553	-216.067	-22.2492	19.135	
14	0.116667	-232.223	2.06657	23.9302	-244.274	6.95052	2.24938	-249.962	6.15883	-21.9319	-250.027	5.93084	-42.1507	-215.01	-13.2919	-45.9143	-213.003	-9.46554	-66.0551	-209.87	-2.32173	-89.5503	-198.094	-17.5887	-46.8919	-192.542	-12.5009	-70.6933	-180.73	-3.72516	-96.9402	-178.45	-20.703	-37.483	-172.062	-17.4434	-59.2238	-168.582	-10.4717	-77.7229	-158.634	-21.12	-22.2927	-152.809	-20.3048	-35.8966	-143.316	-20.6726	-58.8715	-185.836	-27.2219	9.25586	-193.149	-25.2765	31.2801	-214.627	-22.4434	16.0049	
15	0.125	-231.907	2.15677	22.8178	-243.048	5.46213	-1.06803	-249.695	3.37998	-26.2081	-252.568	7.35948	-41.5094	-217.983	-12.4225	-45.2775	-217.206	-8.0509	-67.638	-208.724	-3.04851	-92.6623	-195.645	-18.3124	-46.2792	-193.031	-11.4522	-74.2306	-183.953	-4.85714	-94.8804	-177.746	-20.7405	-36.2134	-173.924	-16.4439	-58.4683	-166.737	-9.98662	-79.0921	-158.772	-20.3726	-21.511	-154.578	-19.105	-38.5972	-147.047	-19.5943	-59.1135	-187.878	-25.5868	5.21306	-193.123	-26.1868	31.3737	-217.114	-23.7893	12.5989	
16	0.133333	-232.663	1.28798	23.4798	-244.809	3.55167	-4.18318	-248.889	3.22343	-23.9678	-253.273	2.93574	-45.7033	-217.546	-13.0361	-44.0402	-213.28	-8.22655	-70.2003	-210.807	-3.67458	-91.003	-194.37	-17.5544	-45.7842	-189.56	-12.7298	-72.4099	-183.053	-5.21451	-95.0121	-180.295	-18.9703	-39.4041	-171.237	-16.8242	-61.5716	-165.965	-9.49675	-84.1932	-159.825	-19.0187	-24.1021	-154.006	-18.4509	-38.8261	-146.892	-17.9367	-57.6911	-187.466	-25.9859	8.53327	-193.788	-27.8927	28.5471	-214.777	-24.5454	11.3341	
